<svg xmlns="http://www.w3.org/2000/svg" viewBox="0 0 209.97 60.99"><defs><style>.cls-1{fill:#fcd10a;}.cls-2{fill:#010101;}</style></defs><title>CTA-Find-out-More</title><g id="Layer_2" data-name="Layer 2"><g id="Layer_1-2" data-name="Layer 1"><rect class="cls-1" width="209.97" height="60.99"/><path class="cls-2" d="M25.4,35.83V21.51h9.66V23.2H27.29v4.43H34v1.69H27.29v6.5Z"/><path class="cls-2" d="M37.3,23.54v-2h1.76v2Zm0,12.29V25.46h1.76V35.83Z"/><path class="cls-2" d="M41.73,35.83V25.46h1.58v1.47a3.73,3.73,0,0,1,3.3-1.71,4.33,4.33,0,0,1,1.72.34,2.71,2.71,0,0,1,1.18.88,3.39,3.39,0,0,1,.55,1.3,10,10,0,0,1,.1,1.71v6.38H48.4V29.52a4.74,4.74,0,0,0-.21-1.61,1.69,1.69,0,0,0-.73-.85,2.31,2.31,0,0,0-1.23-.32,2.85,2.85,0,0,0-1.94.71,3.52,3.52,0,0,0-.82,2.71v5.66Z"/><path class="cls-2" d="M59.58,35.83V34.52a3.23,3.23,0,0,1-2.9,1.54,4.06,4.06,0,0,1-2.28-.68,4.5,4.5,0,0,1-1.61-1.91,6.6,6.6,0,0,1-.57-2.82,7.38,7.38,0,0,1,.52-2.82,4.08,4.08,0,0,1,1.55-1.94,4.15,4.15,0,0,1,2.31-.67,3.46,3.46,0,0,1,2.86,1.43V21.51h1.75V35.83ZM54,30.65a4.51,4.51,0,0,0,.84,3,2.53,2.53,0,0,0,2,1,2.49,2.49,0,0,0,2-.94,4.34,4.34,0,0,0,.81-2.88,4.88,4.88,0,0,0-.82-3.12,2.52,2.52,0,0,0-2-1,2.44,2.44,0,0,0-2,1A4.72,4.72,0,0,0,54,30.65Z"/><path class="cls-2" d="M68.88,30.64a5.35,5.35,0,0,1,1.6-4.27,4.82,4.82,0,0,1,3.26-1.15,4.65,4.65,0,0,1,3.5,1.4A5.33,5.33,0,0,1,78.6,30.5a6.86,6.86,0,0,1-.6,3.15,4.25,4.25,0,0,1-1.75,1.78,5.09,5.09,0,0,1-2.5.63,4.66,4.66,0,0,1-3.52-1.4A5.58,5.58,0,0,1,68.88,30.64Zm1.81,0a4.42,4.42,0,0,0,.87,3,2.89,2.89,0,0,0,4.37,0,4.52,4.52,0,0,0,.87-3,4.28,4.28,0,0,0-.87-2.92,2.9,2.9,0,0,0-4.36,0A4.4,4.4,0,0,0,70.69,30.64Z"/><path class="cls-2" d="M87.46,35.83V34.31a3.8,3.8,0,0,1-3.29,1.76,4.19,4.19,0,0,1-1.71-.35,2.83,2.83,0,0,1-1.18-.88,3.32,3.32,0,0,1-.54-1.3,9,9,0,0,1-.11-1.64V25.46h1.76v5.75a10.28,10.28,0,0,0,.11,1.86,1.83,1.83,0,0,0,.7,1.09,2.18,2.18,0,0,0,1.33.4A2.89,2.89,0,0,0,86,34.15,2.26,2.26,0,0,0,87,33a5.53,5.53,0,0,0,.29-2V25.46H89V35.83Z"/><path class="cls-2" d="M95.62,34.26l.25,1.55a6.5,6.5,0,0,1-1.33.16,3,3,0,0,1-1.48-.3,1.7,1.7,0,0,1-.74-.8,6.29,6.29,0,0,1-.21-2.08v-6H90.82V25.46H92.1V22.89l1.75-1.05v3.62h1.77v1.37H93.85v6.06a3.08,3.08,0,0,0,.09,1,.73.73,0,0,0,.3.34,1.16,1.16,0,0,0,.6.13A5.67,5.67,0,0,0,95.62,34.26Z"/><path class="cls-2" d="M102.9,35.83V25.46h1.57v1.46a3.7,3.7,0,0,1,1.3-1.23,3.64,3.64,0,0,1,1.85-.46,3.41,3.41,0,0,1,1.89.48,2.56,2.56,0,0,1,1,1.34,3.72,3.72,0,0,1,3.2-1.82,3.16,3.16,0,0,1,2.37.85,3.65,3.65,0,0,1,.83,2.63v7.12H115.2V29.3a4.8,4.8,0,0,0-.17-1.52,1.47,1.47,0,0,0-.62-.75,1.94,1.94,0,0,0-1.05-.28,2.45,2.45,0,0,0-1.82.73,3.21,3.21,0,0,0-.72,2.33v6h-1.76V29.09a3,3,0,0,0-.43-1.76,1.63,1.63,0,0,0-1.41-.59,2.55,2.55,0,0,0-1.37.39,2.22,2.22,0,0,0-.91,1.14,6.44,6.44,0,0,0-.28,2.17v5.38Z"/><path class="cls-2" d="M118.9,30.64a5.35,5.35,0,0,1,1.6-4.27,4.82,4.82,0,0,1,3.26-1.15,4.65,4.65,0,0,1,3.5,1.4,5.33,5.33,0,0,1,1.36,3.87,6.86,6.86,0,0,1-.6,3.15,4.25,4.25,0,0,1-1.75,1.78,5.09,5.09,0,0,1-2.5.63,4.66,4.66,0,0,1-3.52-1.4A5.58,5.58,0,0,1,118.9,30.64Zm1.81,0a4.42,4.42,0,0,0,.87,3,2.89,2.89,0,0,0,4.37,0,4.52,4.52,0,0,0,.87-3,4.28,4.28,0,0,0-.87-2.92,2.9,2.9,0,0,0-4.36,0A4.4,4.4,0,0,0,120.71,30.64Z"/><path class="cls-2" d="M130.66,35.83V25.46h1.58V27a4.29,4.29,0,0,1,1.12-1.46,2,2,0,0,1,1.13-.35,3.43,3.43,0,0,1,1.81.57l-.61,1.63A2.52,2.52,0,0,0,134.4,27a1.67,1.67,0,0,0-1,.35,1.88,1.88,0,0,0-.65,1,6.85,6.85,0,0,0-.29,2.05v5.43Z"/><path class="cls-2" d="M144.44,32.49l1.82.22a4.43,4.43,0,0,1-1.59,2.47,5.39,5.39,0,0,1-6.58-.52,5.48,5.48,0,0,1-1.33-3.93,5.73,5.73,0,0,1,1.35-4.06,4.56,4.56,0,0,1,3.5-1.45,4.43,4.43,0,0,1,3.4,1.42,5.63,5.63,0,0,1,1.32,4c0,.1,0,.26,0,.47h-7.73a4,4,0,0,0,1,2.62,2.88,2.88,0,0,0,2.17.91,2.69,2.69,0,0,0,1.65-.51A3.37,3.37,0,0,0,144.44,32.49Zm-5.77-2.84h5.79a3.52,3.52,0,0,0-.66-2,2.69,2.69,0,0,0-2.18-1,2.79,2.79,0,0,0-2,.81A3.21,3.21,0,0,0,138.67,29.65Z"/><circle class="cls-2" cx="182.85" cy="30.5" r="13.42"/><path class="cls-1" d="M184.27,27.93c-.75-.75-1.53-1.46-2.25-2.24a2.32,2.32,0,0,1-.08-3.31,1.93,1.93,0,0,1,3,.15c2.2,2.38,4.37,4.78,6.57,7.15a1,1,0,0,1,0,1.69c-2.18,2.35-4.33,4.73-6.5,7.08a2,2,0,0,1-3.05.16,2.37,2.37,0,0,1,.14-3.33c.71-.78,1.45-1.53,2.17-2.29l-.1-.24h-9a2.16,2.16,0,0,1-2.27-2.24,2.18,2.18,0,0,1,2.28-2.23c3,0,6,0,9,0Z"/></g></g></svg>