<?xml version="1.0" encoding="utf-8"?>
<!-- Generator: Adobe Illustrator 21.0.2, SVG Export Plug-In . SVG Version: 6.00 Build 0)  -->
<svg version="1.1" id="svg2" shape-rendering="geometricPrecision"
	 xmlns="http://www.w3.org/2000/svg" xmlns:xlink="http://www.w3.org/1999/xlink" x="0px" y="0px" viewBox="0 0 100 100"
	 style="enable-background:new 0 0 100 100;" xml:space="preserve">
<style type="text/css">
	.st0{display:none;fill:#FFFFFF;}
	.st1{fill:#FFCC00;}
</style>
<rect x="-49" y="51" class="st0" width="40" height="40"/>
<path d="M50,1C22,1,0,23,0,51s22,50,50,50s50-22,50-50S78,1,50,1z"/>
<path class="st1" d="M72,43c0,1,0,1,0,1c0,14-11,31-31,31c-6,0-12-2-17-5c1,0,2,0,3,0c5,0,10-2,13-5c-5,0-9-3-10-8c1,0,1,0,2,0
	s2,0,3,0c-5-1-9-5-9-11l0,0c1,1,3,1,5,1c-3-2-5-5-5-9c0-2,1-4,2-5c5,7,13,11,22,11c0-1,0-2,0-3c0-6,5-11,11-11c3,0,6,1,8,3
	c2-1,5-1,7-3c-1,3-3,5-5,6c2,0,4-1,6-2C76,40,74,42,72,43z"/>
</svg>
