<?xml version="1.0" encoding="utf-8"?>
<!-- Generator: Adobe Illustrator 21.0.2, SVG Export Plug-In . SVG Version: 6.00 Build 0)  -->
<svg version="1.1" id="Layer_1" xmlns="http://www.w3.org/2000/svg" xmlns:xlink="http://www.w3.org/1999/xlink" x="0px" y="0px"
	 viewBox="0 0 200 200" style="enable-background:new 0 0 200 200;" xml:space="preserve">
<style type="text/css">
	.st0{fill:#FFCC00;}
</style>
<circle class="st0" cx="100.6" cy="100.3" r="96.8"/>
<path d="M146.4,88.7c-2.1,0-4.1,1.1-5.9,3.4V78.3h-5.7v42.3h5.7v-3.1c1.9,2.4,3.9,3.5,5.9,3.5c2.3,0,3.8-1.2,4.6-3.5
	c0.4-1.3,0.6-3.4,0.6-6.3V98.6c0-3-0.2-5.1-0.6-6.3C150.2,89.9,148.7,88.7,146.4,88.7 M145.9,111.6c0,2.8-0.8,4.3-2.5,4.3
	c-0.9,0-1.9-0.5-2.9-1.4V95.2c1-0.9,1.9-1.4,2.9-1.4c1.6,0,2.5,1.5,2.5,4.3V111.6L145.9,111.6z"/>
<path d="M50.7,93.5c-1.9,0-2.7,1.5-2.7,4.4v13.4c0,2.9,0.9,4.4,2.7,4.4c1.9,0,2.8-1.5,2.8-4.4V97.9C53.5,95,52.6,93.5,50.7,93.5"/>
<path d="M124.2,113.1c-1.3,1.8-2.5,2.7-3.6,2.7c-0.8,0-1.2-0.5-1.3-1.3c-0.1-0.2-0.1-0.9-0.1-2.2V89.1h-5.7V114
	c0,2.2,0.2,3.7,0.5,4.7c0.6,1.6,1.8,2.3,3.7,2.3c2.1,0,4.3-1.3,6.5-3.9v3.4h5.7V89.1h-5.7V113.1z"/>
<polygon points="92.7,84.2 99.4,84.2 99.4,120.6 105.8,120.6 105.8,84.2 112.6,84.2 112.6,78.3 92.7,78.3 "/>
<path d="M164.6,88.7c-2.9,0-5.2,1.1-6.8,3.2c-1.2,1.6-1.8,4.1-1.8,7.4v11c0,3.3,0.6,5.8,1.8,7.4c1.6,2.2,3.9,3.2,6.9,3.2
	s5.3-1.1,6.9-3.4c0.7-1,1.1-2.2,1.3-3.4c0.1-0.6,0.1-1.8,0.1-3.7v-0.8h-5.8c0,2.3-0.1,3.6-0.1,3.9c-0.3,1.5-1.1,2.3-2.6,2.3
	c-2,0-2.9-1.5-2.9-4.4v-5.6H173v-6.5c0-3.4-0.6-5.8-1.8-7.4C169.7,89.8,167.5,88.7,164.6,88.7 M167.4,101.1h-5.7v-2.9
	c0-2.9,0.9-4.4,2.9-4.4c1.9,0,2.9,1.5,2.9,4.4L167.4,101.1L167.4,101.1z"/>
<path d="M100.1,1.6c-54.7,0-99,44.3-99,99s44.3,99,99,99s99-44.3,99-99S154.8,1.6,100.1,1.6 M34.4,103.3v17.3H28v-17.3
	c-0.6-3.1-1.9-7.6-3.9-13.5c-1.3-4-2.8-7.9-4.1-11.9h6.7l4.5,16.8l4.4-16.8h6.5L34.4,103.3z M59.2,110.3c0,3.4-0.6,5.9-1.8,7.5
	c-1.6,2.2-3.8,3.3-6.7,3.3s-5.1-1.1-6.7-3.3c-1.2-1.6-1.8-4.1-1.8-7.5V99.1c0-3.4,0.6-5.9,1.8-7.5c1.6-2.2,3.8-3.3,6.7-3.3
	s5.1,1.1,6.7,3.3c1.2,1.6,1.8,4.1,1.8,7.5V110.3z M80.6,120.6h-5.8v-3.5c-2.3,2.6-4.5,3.9-6.6,3.9c-1.9,0-3.1-0.8-3.7-2.4
	c-0.3-1-0.5-2.5-0.5-4.7V88.7h5.8v23.4c0,1.4,0,2.1,0.1,2.2c0.1,0.9,0.6,1.4,1.4,1.4c1.2,0,2.4-0.9,3.6-2.7V88.7h5.8v31.9H80.6z
	 M168.3,131.8c-11.7,1.3-23.6,1.3-35.4,1.3s-23.7,0-35.4-1.3c-4.9-0.6-9-4.3-10.2-9.3c-1.6-7.2-1.6-15-1.6-22.3
	c0-7.4,0-15.2,1.7-22.3c1.2-5,5.3-8.7,10.2-9.3c11.7-1.3,23.6-1.3,35.4-1.3s23.7,0,35.4,1.3c4.9,0.6,9.1,4.3,10.2,9.3
	c1.7,7.2,1.6,15,1.6,22.3c0,7.4,0,15.2-1.7,22.3C177.3,127.5,173.2,131.2,168.3,131.8"/>
</svg>
