<?xml version="1.0" encoding="utf-8"?>
<!-- Generator: Adobe Illustrator 21.0.2, SVG Export Plug-In . SVG Version: 6.00 Build 0)  -->
<svg version="1.1" id="Layer_1" xmlns="http://www.w3.org/2000/svg" xmlns:xlink="http://www.w3.org/1999/xlink" x="0px" y="0px"
	 viewBox="0 0 728.5 728.3" style="enable-background:new 0 0 728.5 728.3;" xml:space="preserve">
<style type="text/css">
	.st0{fill:#FFCC00;}
</style>
<g>
	<path d="M364.8,0C163.6,0,0.6,163,0.6,364.2c0,201.1,163,364.2,364.2,364.2c201.1,0,364.1-163,364.1-364.2S565.8,0,364.8,0z"/>
	<path class="st0" d="M435,314.8c-32.6,0-47.2,17.9-55.3,30.5v0.6h-0.4c0.1-0.2,0.3-0.4,0.4-0.6v-26.1h-61.4
		c0.8,17.3,0,184.6,0,184.6h61.4V400.6c0-5.5,0.4-11,2-15c4.5-11,14.6-22.5,31.5-22.5c22.2,0,31.1,17,31.1,41.8v98.8h61.4V397.9
		C505.7,341.1,475.4,314.8,435,314.8z"/>
	<path class="st0" d="M254.1,230.1c-21,0-34.7,13.8-34.7,31.9c0,17.7,13.3,31.9,33.9,31.9h0.4c21.4,0,34.7-14.2,34.7-31.9
		C288,243.9,275.1,230.1,254.1,230.1z"/>
	<rect x="223" y="319.1" class="st0" width="61.4" height="184.6"/>
</g>
</svg>
